<svg xmlns="http://www.w3.org/2000/svg" viewBox="0 0 64 64">
  <defs>
    <linearGradient id="bg" x1="8" y1="5" x2="56" y2="59" gradientUnits="userSpaceOnUse">
      <stop stop-color="#1a2a34"/>
      <stop offset="1" stop-color="#070c10"/>
    </linearGradient>
    <linearGradient id="fur" x1="18" y1="13" x2="45" y2="53" gradientUnits="userSpaceOnUse">
      <stop stop-color="#f0c98f"/>
      <stop offset="1" stop-color="#b87632"/>
    </linearGradient>
  </defs>
  <circle cx="32" cy="32" r="30" fill="url(#bg)" stroke="#d39a54" stroke-width="2"/>
  <path fill="url(#fur)" d="M11 12.5 25.2 20 32 15l6.8 5L53 12.5l-3.6 22.7-7.2 15.1L32 57l-10.2-6.7-7.2-15.1L11 12.5Z"/>
  <path fill="#111a20" d="m15.2 17.3 9 5.7-7.5 7.4-1.5-13.1Zm33.6 0-9 5.7 7.5 7.4 1.5-13.1ZM23 25l9-6.5L41 25l-2.6 17.2L32 52l-6.4-9.8L23 25Z"/>
  <path fill="#efbf78" d="m19.3 32.2 10 2.5-7.4 4.2-2.6-6.7Zm25.4 0-10 2.5 7.4 4.2 2.6-6.7Z"/>
  <path fill="#f8e4bd" d="m22.2 34.3 5.1 1.3-4 1.5-1.1-2.8Zm19.6 0-5.1 1.3 4 1.5 1.1-2.8Z"/>
  <path fill="#d79245" d="M25.6 42.2 32 39l6.4 3.2-2.2 8.1L32 54l-4.2-3.7-2.2-8.1Z"/>
  <path fill="#090d10" d="m28.4 43 3.6-1.6 3.6 1.6-1.2 3H29.6l-1.2-3Z"/>
  <path fill="none" stroke="#090d10" stroke-linecap="round" stroke-width="1.5" d="M32 46v4m0 0-3 1.5M32 50l3 1.5"/>
</svg>
